<?xml version="1.0" encoding="UTF-8"?>
<!DOCTYPE svg PUBLIC "-//W3C//DTD SVG 1.1//EN" "http://www.w3.org/Graphics/SVG/1.1/DTD/svg11.dtd">
<!-- Creator: CorelDRAW -->
<svg xmlns="http://www.w3.org/2000/svg" xml:space="preserve" width="25.4mm" height="25.4mm" version="1.1" style="shape-rendering:geometricPrecision; text-rendering:geometricPrecision; image-rendering:optimizeQuality; fill-rule:evenodd; clip-rule:evenodd"
viewBox="0 0 2540 2540"
 xmlns:xlink="http://www.w3.org/1999/xlink"
 xmlns:xodm="http://www.corel.com/coreldraw/odm/2003">
 <defs>
  <style type="text/css">
   <![CDATA[
    .fil0 {fill:#727376}
   ]]>
  </style>
 </defs>
 <g id="Camada_x0020_1">
  <metadata id="CorelCorpID_0Corel-Layer"/>
  <path class="fil0" d="M101.6 207.72c0,53.98 7.64,65.55 44.98,102.66 100.91,100.31 954.87,949.69 970.02,972.33 -13.02,19.44 -234.51,236.82 -257.21,259.51l-710.5 710.5c-38.38,38.24 -47.29,49.98 -47.29,104.97 0,57.22 50.06,106.11 124.57,106.11 54.1,0 103.7,-64.48 148.79,-109.57l907.73 -905.43c23.35,15.63 867.9,865.22 970.02,967.71 38.24,38.38 49.98,47.29 104.97,47.29 57.22,0 106.11,-50.06 106.11,-124.57 0,-54.1 -64.48,-103.7 -109.57,-148.79 -77.15,-77.14 -889.9,-884.54 -905.43,-907.73 14.46,-21.61 498.39,-500.7 515.57,-517.89l452.14 -452.13c38.38,-38.24 47.29,-49.98 47.29,-104.97 0,-59.77 -50.58,-106.11 -124.57,-106.11 -54.5,0 -102.62,63.41 -148.79,109.57 -44.19,44.19 -84.99,85 -129.18,129.19l-710.51 710.5c-19.05,19.05 -48.09,52.38 -68.05,65.74 -23.42,-15.68 -867.74,-865.1 -970.01,-967.71 -38.33,-38.46 -48.6,-47.29 -104.97,-47.29 -53.7,0 -106.11,52.41 -106.11,106.11z"/>
 </g>
</svg>
