<?xml version="1.0" encoding="UTF-8"?>
<!DOCTYPE svg PUBLIC "-//W3C//DTD SVG 1.1//EN" "http://www.w3.org/Graphics/SVG/1.1/DTD/svg11.dtd">
<!-- Creator: CorelDRAW -->
<svg xmlns="http://www.w3.org/2000/svg" xml:space="preserve" width="8.4666mm" height="8.4666mm" version="1.1" style="shape-rendering:geometricPrecision; text-rendering:geometricPrecision; image-rendering:optimizeQuality; fill-rule:evenodd; clip-rule:evenodd"
viewBox="0 0 846.66 846.66"
 xmlns:xlink="http://www.w3.org/1999/xlink"
 xmlns:xodm="http://www.corel.com/coreldraw/odm/2003">
 <defs>
  <style type="text/css">
   <![CDATA[
    .fil0 {fill:black}
   ]]>
  </style>
 </defs>
 <g id="Camada_x0020_1">
  <metadata id="CorelCorpID_0Corel-Layer"/>
  <path id="Close.svg" class="fil0" d="M153.69 187.51c0,23.43 6.4,25.94 23.71,43.25 20.32,20.31 203.23,204.74 209.53,208.97 -4.29,6.39 -198.23,198.84 -224.06,224.55 -5.59,5.56 -8.44,12.36 -9.18,19.4l0 7.64c1.77,17.5 15.24,34.08 31.24,34.08 25.6,0 24.92,-3.15 46.04,-24.27 20.26,-20.26 201.9,-203.49 208.4,-207.85 6.31,4.23 187.54,186.98 207.85,207.29 21.38,21.38 20.73,24.83 46.58,24.83 4.79,0 8.54,-1.8 11.95,-3.67 14.69,-8.07 19.31,-19.71 19.31,-36.49 0,-15.05 -15.5,-27.21 -23.71,-35.44 -20.59,-20.58 -205.15,-203.54 -209.53,-210.07 6.86,-4.6 22.79,-22.23 29.85,-29.3l179.12 -179.11c17.5,-17.51 24.27,-20.08 24.27,-43.81 0,-17.01 -19.06,-33.47 -35.72,-33.47 -20.36,0 -27.73,11.55 -38.22,22.04 -10.3,10.32 -19.81,19.82 -30.13,30.13 -10.55,10.56 -176.05,177.34 -181.62,181.06 -6.33,-4.24 -190.67,-190.12 -211.19,-210.63 -9.95,-9.95 -18.53,-22.6 -37.66,-22.6 -18.82,0 -36.83,17 -36.83,33.47z"/>
 </g>
</svg>
