<svg width="154" height="27" viewBox="0 0 154 27" fill="none" xmlns="http://www.w3.org/2000/svg">
<path d="M16.704 7.68H16.608L14.976 10.944L10.6239 18.8477L6.36775 10.9757L4.67187 7.45587H4.57587V22.3359H0V0H5.15187L10.6239 10.464H10.6877L16.0959 0H21.2799V22.3359H16.704V7.68Z" fill="#FEFEFE"/>
<path d="M32.7787 22.7199C31.5413 22.7199 30.432 22.5173 29.4508 22.1117C28.4905 21.7066 27.6692 21.12 26.9866 20.352C26.3252 19.584 25.8134 18.6557 25.4506 17.568C25.0881 16.4799 24.9067 15.264 24.9067 13.92C24.9067 12.576 25.0881 11.3597 25.4506 10.272C25.8134 9.18387 26.3252 8.26658 26.9866 7.51974C27.6692 6.75174 28.4905 6.16516 29.4508 5.76C30.432 5.35445 31.5413 5.15187 32.7787 5.15187C34.0161 5.15187 35.1145 5.35445 36.0745 5.76C37.056 6.16516 37.8773 6.75174 38.5387 7.51974C39.2213 8.26658 39.744 9.18387 40.1068 10.272C40.4693 11.3597 40.6507 12.576 40.6507 13.92C40.6507 15.264 40.4693 16.4799 40.1068 17.568C39.744 18.6557 39.2213 19.584 38.5387 20.352C37.8773 21.12 37.056 21.7066 36.0745 22.1117C35.1145 22.5173 34.0161 22.7199 32.7787 22.7199ZM32.7787 18.9759C33.7172 18.9759 34.4425 18.6879 34.9546 18.1119C35.4667 17.5359 35.7226 16.7146 35.7226 15.648V12.2237C35.7226 11.1572 35.4667 10.3359 34.9546 9.75987C34.4425 9.18387 33.7172 8.89587 32.7787 8.89587C31.8399 8.89587 31.1146 9.18387 30.6028 9.75987C30.0907 10.3359 29.8348 11.1572 29.8348 12.2237V15.648C29.8348 16.7146 30.0907 17.5359 30.6028 18.1119C31.1146 18.6879 31.8399 18.9759 32.7787 18.9759Z" fill="#FEFEFE"/>
<path d="M49.7257 22.3359C48.0831 22.3359 46.8351 21.9197 45.9817 21.0879C45.1495 20.256 44.7337 19.0397 44.7337 17.4399V9.216H42.3655V5.53587H43.5496C44.1899 5.53587 44.6271 5.38658 44.8619 5.088C45.0962 4.76787 45.2137 4.32 45.2137 3.744V0.991745H49.4695V5.53587H52.7977V9.216H49.4695V18.6557H52.5419V22.3359H49.7257Z" fill="#FEFEFE"/>
<path d="M62.7787 22.7199C61.5413 22.7199 60.432 22.5173 59.4505 22.1117C58.4905 21.7066 57.6692 21.12 56.9866 20.352C56.3252 19.584 55.8134 18.6557 55.4506 17.568C55.0881 16.4799 54.9067 15.264 54.9067 13.92C54.9067 12.576 55.0881 11.3597 55.4506 10.272C55.8134 9.18387 56.3252 8.26658 56.9866 7.51974C57.6692 6.75174 58.4905 6.16516 59.4505 5.76C60.432 5.35445 61.5413 5.15187 62.7787 5.15187C64.0161 5.15187 65.1148 5.35445 66.0748 5.76C67.056 6.16516 67.8773 6.75174 68.5387 7.51974C69.2213 8.26658 69.744 9.18387 70.1068 10.272C70.4693 11.3597 70.6507 12.576 70.6507 13.92C70.6507 15.264 70.4693 16.4799 70.1068 17.568C69.744 18.6557 69.2213 19.584 68.5387 20.352C67.8773 21.12 67.056 21.7066 66.0748 22.1117C65.1148 22.5173 64.0161 22.7199 62.7787 22.7199ZM62.7787 18.9759C63.7172 18.9759 64.4425 18.6879 64.9546 18.1119C65.4667 17.5359 65.7226 16.7146 65.7226 15.648V12.2237C65.7226 11.1572 65.4667 10.3359 64.9546 9.75987C64.4425 9.18387 63.7172 8.89587 62.7787 8.89587C61.8399 8.89587 61.1146 9.18387 60.6025 9.75987C60.0907 10.3359 59.8348 11.1572 59.8348 12.2237V15.648C59.8348 16.7146 60.0907 17.5359 60.6025 18.1119C61.1146 18.6879 61.8399 18.9759 62.7787 18.9759Z" fill="#FEFEFE"/>
<path d="M74.0251 22.3359V5.53587H78.7612V9.18387H78.9211C79.0065 8.71446 79.1558 8.26658 79.3693 7.83987C79.5825 7.392 79.8599 6.99704 80.2012 6.65575C80.5637 6.31446 80.9904 6.048 81.4813 5.856C81.9719 5.64246 82.5479 5.53587 83.2093 5.53587H84.0412V9.95187H82.8571C81.4704 9.95187 80.4359 10.1333 79.7533 10.4957C79.0919 10.8586 78.7612 11.5306 78.7612 12.5117V22.3359H74.0251Z" fill="#FEFEFE"/>
<path d="M92.6589 22.7199C91.0375 22.7199 89.6719 22.464 88.5626 21.9519C87.4533 21.4186 86.4612 20.6717 85.5866 19.7117L88.3706 16.896C88.9682 17.557 89.6292 18.0797 90.3549 18.4637C91.0802 18.8477 91.9015 19.0397 92.8188 19.0397C93.7572 19.0397 94.4081 18.901 94.7709 18.624C95.1333 18.325 95.3148 17.9305 95.3148 17.4399C95.3148 16.6507 94.7493 16.1813 93.6189 16.032L91.7949 15.8079C88.0188 15.3385 86.1309 13.6105 86.1309 10.6239C86.1309 9.81316 86.2802 9.07729 86.5788 8.41587C86.8989 7.73329 87.3362 7.15729 87.8906 6.68787C88.4666 6.19729 89.1492 5.82387 89.9388 5.568C90.7495 5.29058 91.6562 5.15187 92.6589 5.15187C93.5335 5.15187 94.3015 5.21574 94.9629 5.34387C95.6455 5.45045 96.2426 5.62129 96.7548 5.856C97.2881 6.06916 97.7681 6.34658 98.1948 6.68787C98.6426 7.008 99.0799 7.37045 99.5066 7.776L96.7869 10.56C96.2532 10.0267 95.6455 9.61058 94.9629 9.312C94.3015 8.99187 93.6189 8.832 92.9148 8.832C92.1041 8.832 91.5281 8.95974 91.1868 9.216C90.8455 9.47187 90.6746 9.81316 90.6746 10.2399C90.6746 10.6877 90.7922 11.04 91.0265 11.2959C91.2828 11.5306 91.7522 11.701 92.4348 11.808L94.3226 12.0639C98.0133 12.5545 99.8585 14.2397 99.8585 17.1197C99.8585 17.9305 99.6881 18.6773 99.3468 19.3599C99.0055 20.0425 98.5145 20.64 97.8746 21.1517C97.2559 21.6427 96.4985 22.0267 95.6028 22.3037C94.7282 22.5812 93.7466 22.7199 92.6589 22.7199Z" fill="#FEFEFE"/>
<path d="M113.382 22.5759C112.369 22.5759 111.516 22.416 110.822 22.0959C110.129 21.7625 109.509 21.2957 108.962 20.6959L110.702 18.9358C111.076 19.3493 111.489 19.6758 111.942 19.9158C112.396 20.1558 112.909 20.276 113.482 20.276C114.069 20.276 114.476 20.1891 114.702 20.016C114.929 19.8293 115.042 19.5825 115.042 19.276C115.042 18.7827 114.689 18.4891 113.982 18.3957L112.842 18.2559C110.482 17.9626 109.302 16.8824 109.302 15.0161C109.302 14.5092 109.396 14.0493 109.582 13.6358C109.782 13.2091 110.056 12.8493 110.402 12.556C110.762 12.2491 111.189 12.0159 111.682 11.856C112.189 11.6825 112.756 11.596 113.382 11.596C113.929 11.596 114.409 11.636 114.822 11.7158C115.249 11.7827 115.622 11.8893 115.942 12.0359C116.276 12.1693 116.576 12.3424 116.842 12.556C117.122 12.7559 117.396 12.9827 117.662 13.2359L115.962 14.976C115.629 14.6426 115.249 14.3826 114.822 14.1959C114.409 13.996 113.982 13.8958 113.542 13.8958C113.036 13.8958 112.676 13.9759 112.462 14.1358C112.249 14.2961 112.142 14.5092 112.142 14.7761C112.142 15.0557 112.216 15.2757 112.362 15.436C112.522 15.5826 112.816 15.6892 113.242 15.7557L114.422 15.916C116.729 16.2225 117.882 17.2758 117.882 19.076C117.882 19.5825 117.776 20.0493 117.562 20.476C117.349 20.9027 117.042 21.2757 116.642 21.5958C116.256 21.9027 115.782 22.1427 115.222 22.3158C114.676 22.4893 114.062 22.5759 113.382 22.5759Z" fill="#FEFEFE"/>
<path d="M119.9 7.536H122.86V13.6157H122.98C123.167 13.0692 123.494 12.596 123.96 12.1958C124.427 11.7959 125.074 11.596 125.9 11.596C126.98 11.596 127.794 11.9558 128.34 12.6758C128.9 13.3958 129.18 14.4227 129.18 15.7557V22.3359H126.22V15.9957C126.22 15.3158 126.114 14.8157 125.9 14.496C125.687 14.1626 125.307 13.996 124.76 13.996C124.52 13.996 124.287 14.0292 124.06 14.0957C123.834 14.149 123.627 14.2424 123.44 14.3758C123.267 14.5092 123.127 14.6759 123.02 14.8758C122.914 15.0625 122.86 15.2825 122.86 15.5357V22.3359H119.9V7.536Z" fill="#FEFEFE"/>
<path d="M136.074 22.5759C135.301 22.5759 134.608 22.4493 133.994 22.196C133.394 21.9424 132.881 21.5758 132.454 21.0958C132.041 20.6158 131.721 20.036 131.494 19.3557C131.268 18.6758 131.154 17.9157 131.154 17.0759C131.154 16.2357 131.268 15.476 131.494 14.7957C131.721 14.1158 132.041 13.5424 132.454 13.076C132.881 12.596 133.394 12.229 133.994 11.9758C134.608 11.7226 135.301 11.596 136.074 11.596C136.848 11.596 137.534 11.7226 138.134 11.9758C138.748 12.229 139.261 12.596 139.674 13.076C140.101 13.5424 140.428 14.1158 140.654 14.7957C140.881 15.476 140.994 16.2357 140.994 17.0759C140.994 17.9157 140.881 18.6758 140.654 19.3557C140.428 20.036 140.101 20.6158 139.674 21.0958C139.261 21.5758 138.748 21.9424 138.134 22.196C137.534 22.4493 136.848 22.5759 136.074 22.5759ZM136.074 20.236C136.661 20.236 137.114 20.0561 137.434 19.6959C137.754 19.3357 137.914 18.8224 137.914 18.1557V16.0157C137.914 15.349 137.754 14.8358 137.434 14.476C137.114 14.1158 136.661 13.9359 136.074 13.9359C135.488 13.9359 135.034 14.1158 134.714 14.476C134.394 14.8358 134.234 15.349 134.234 16.0157V18.1557C134.234 18.8224 134.394 19.3357 134.714 19.6959C135.034 20.0561 135.488 20.236 136.074 20.236Z" fill="#FEFEFE"/>
<path d="M143.104 11.836H146.064V13.5957H146.163C146.31 13.0091 146.643 12.5291 147.163 12.1557C147.697 11.7827 148.304 11.596 148.984 11.596C150.317 11.596 151.324 12.0627 152.003 12.9959C152.683 13.9291 153.023 15.2893 153.023 17.0759C153.023 18.8625 152.683 20.2292 152.003 21.1759C151.324 22.1091 150.317 22.5759 148.984 22.5759C148.637 22.5759 148.31 22.5226 148.003 22.416C147.697 22.3226 147.417 22.1892 147.163 22.0157C146.923 21.829 146.717 21.6159 146.544 21.3759C146.37 21.1226 146.243 20.8558 146.163 20.5757H146.064V26.3357H143.104V11.836ZM148.003 20.1759C148.563 20.1759 149.023 19.9827 149.383 19.5957C149.757 19.1958 149.943 18.6625 149.943 17.9958V16.176C149.943 15.5093 149.757 14.9824 149.383 14.5958C149.023 14.1959 148.563 13.996 148.003 13.996C147.443 13.996 146.977 14.1358 146.604 14.4159C146.243 14.6827 146.064 15.0557 146.064 15.5357V18.6357C146.064 19.1157 146.243 19.4959 146.604 19.776C146.977 20.0425 147.443 20.1759 148.003 20.1759Z" fill="#FEFEFE"/>
</svg>
