<svg width="26" height="19" viewBox="0 0 26 19" fill="none" xmlns="http://www.w3.org/2000/svg">
<path fill-rule="evenodd" clip-rule="evenodd" d="M0.519531 17.0537C0.519531 17.5869 0.585295 17.8224 0.99046 18.2287C1.21685 18.4555 1.54038 18.6513 1.972 18.6513H23.8532C24.6393 18.6513 25.3057 17.881 25.3057 17.2959C25.3057 16.263 24.7161 15.6016 23.7081 15.6016H2.11714C1.20363 15.6016 0.519531 16.2717 0.519531 17.0537Z" fill="black"/>
<path fill-rule="evenodd" clip-rule="evenodd" d="M0.519531 1.41686C0.519531 1.96905 0.587941 2.30203 0.989705 2.68943C1.25692 2.94719 1.61068 3.11122 2.11714 3.11122H23.7081C24.6299 3.11122 25.2342 2.46757 25.3057 1.74039V1.45088C25.2728 1.11299 25.1227 0.77283 24.8347 0.484074C24.6083 0.256925 24.2848 0.0615234 23.8532 0.0615234H1.972C1.19569 0.0615234 0.519531 0.820075 0.519531 1.41686Z" fill="black"/>
<path fill-rule="evenodd" clip-rule="evenodd" d="M0.519531 9.21081C0.519531 9.68854 0.569799 10.0589 0.943594 10.4327C1.18133 10.6705 1.54756 10.8568 1.92325 10.8568H23.902C24.6495 10.8568 25.3057 10.1493 25.3057 9.50145C25.3057 8.81736 25.1118 8.32149 24.4851 7.99796C24.3245 7.91481 24.1525 7.85547 23.902 7.85547H1.92325C1.55021 7.85547 1.2263 8.02101 0.968539 8.2561C0.777673 8.43034 0.519531 8.86498 0.519531 9.21081Z" fill="black"/>
</svg>
